<svg xmlns="http://www.w3.org/2000/svg" width="78" height="78" viewBox="0 0 78 78">
  <g id="Group_13842" data-name="Group 13842" transform="translate(-1036 -419)">
    <circle id="Ellipse_151" data-name="Ellipse 151" cx="39" cy="39" r="39" transform="translate(1036 419)" fill="#f5f5f5"/>
    <g id="chat-dots-svgrepo-com" transform="translate(1046.801 431.801)">
      <path id="Path_13488" data-name="Path 13488" d="M21.988,36.531l1.131.669Zm.95-1.6-1.131-.669Zm-5.707,0L16.1,35.6h0Zm.95,1.6,1.131-.669ZM1.25,17.456a1.314,1.314,0,1,0,2.628,0Zm3.195,8.981a1.314,1.314,0,0,0-2.428,1.006Zm8.263,5.9-.023,1.314Zm-4.736-.652-.5,1.214h0ZM36.937,26.94l1.214.5h0Zm-9.477,5.393-.023-1.314Zm4.736-.652.5,1.214h0ZM33.421,3.855l-.687,1.12Zm2.892,2.892,1.12-.687h0ZM6.747,3.855,6.06,2.735h0ZM3.855,6.747,2.735,6.06h0ZM15.534,32.715l.661-1.136h0ZM23.119,37.2l.95-1.6-2.262-1.339-.95,1.6ZM16.1,35.6l.95,1.6,2.261-1.339-.95-1.6Zm4.757.266a.912.912,0,0,1-1.546,0L17.049,37.2a3.54,3.54,0,0,0,6.069,0Zm-3.4-31.984h5.256V1.25H17.456ZM36.29,17.456v1.752h2.628V17.456ZM12.73,31.019a11.8,11.8,0,0,1-4.255-.552L7.469,32.9a14.154,14.154,0,0,0,5.216.752ZM2.017,27.443A10.074,10.074,0,0,0,7.469,32.9l1.006-2.428a7.446,7.446,0,0,1-4.03-4.03ZM36.29,19.208c0,2.059,0,3.537-.08,4.7a7.9,7.9,0,0,1-.487,2.526l2.428,1.006a10.434,10.434,0,0,0,.68-3.353c.087-1.277.086-2.86.086-4.882ZM27.483,33.647A14.154,14.154,0,0,0,32.7,32.9l-1.006-2.428a11.8,11.8,0,0,1-4.255.552Zm8.24-7.209a7.446,7.446,0,0,1-4.03,4.03L32.7,32.9a10.074,10.074,0,0,0,5.452-5.452ZM22.712,3.878c2.893,0,4.97,0,6.591.155a7.74,7.74,0,0,1,3.432.942l1.373-2.241a10.292,10.292,0,0,0-4.556-1.317c-1.774-.169-4-.167-6.84-.167ZM38.918,17.456c0-2.842,0-5.066-.167-6.84A10.292,10.292,0,0,0,37.433,6.06L35.193,7.433a7.739,7.739,0,0,1,.942,3.432c.154,1.62.155,3.7.155,6.591ZM32.734,4.975a7.445,7.445,0,0,1,2.458,2.458L37.433,6.06a10.074,10.074,0,0,0-3.326-3.326ZM17.456,1.25c-2.842,0-5.066,0-6.84.167A10.291,10.291,0,0,0,6.06,2.735L7.433,4.975a7.74,7.74,0,0,1,3.432-.942c1.62-.154,3.7-.155,6.591-.155ZM3.878,17.456c0-2.893,0-4.97.155-6.591a7.74,7.74,0,0,1,.942-3.432L2.735,6.06a10.291,10.291,0,0,0-1.317,4.556c-.169,1.774-.167,4-.167,6.84ZM6.06,2.735A10.074,10.074,0,0,0,2.735,6.06L4.975,7.433A7.446,7.446,0,0,1,7.433,4.975Zm12.3,31.523c-.356-.6-.668-1.131-.971-1.548a3.905,3.905,0,0,0-1.2-1.13l-1.321,2.272a1.338,1.338,0,0,1,.393.406c.213.292.453.7.834,1.339Zm-5.676-.611c.769.013,1.257.023,1.628.064a1.379,1.379,0,0,1,.56.141l1.321-2.272A3.931,3.931,0,0,0,14.6,31.1c-.521-.058-1.151-.067-1.872-.08ZM24.068,35.6c.381-.644.621-1.047.834-1.339a1.338,1.338,0,0,1,.393-.406L23.974,31.58a3.9,3.9,0,0,0-1.2,1.13c-.3.417-.616.947-.972,1.548Zm3.37-4.577c-.721.012-1.351.022-1.872.08a3.931,3.931,0,0,0-1.592.481l1.321,2.272a1.381,1.381,0,0,1,.56-.141c.371-.041.859-.051,1.628-.064Z" transform="translate(8.115 8.115)" fill="#adadad"/>
      <path id="Path_13489" data-name="Path 13489" d="M8,11h.017m7.435,0h.017m7.452,0h.017" transform="translate(12.73 14.692)" fill="none" stroke="#adadad" stroke-linecap="round" stroke-linejoin="round" stroke-width="4"/>
    </g>
  </g>
</svg>
