<svg xmlns="http://www.w3.org/2000/svg" width="39.85" height="39.85" viewBox="0 0 39.85 39.85">
  <g id="Group_13842" data-name="Group 13842" transform="translate(-1059.15 -444.15)">
    <g id="_9057201_hello_icon" data-name="9057201_hello_icon" transform="translate(1059.15 444.15)">
      <path id="Path_13490" data-name="Path 13490" d="M26.425,12A9.962,9.962,0,1,1,6.5,12Z" transform="translate(3.462 7.925)" fill="#cbcbcb"/>
      <path id="Path_13491" data-name="Path 13491" d="M1,11.868A10.868,10.868,0,0,1,11.868,1H29.982A10.868,10.868,0,0,1,40.85,11.868V29.982A10.868,10.868,0,0,1,29.982,40.85H1Zm4.981,9.057A14.944,14.944,0,1,1,20.925,35.868,14.944,14.944,0,0,1,5.981,20.925Z" transform="translate(-1 -1)" fill="#cbcbcb" fill-rule="evenodd"/>
    </g>
  </g>
</svg>
